<?xml version="1.0" encoding="utf-8"?>
<!-- Generator: Adobe Illustrator 16.0.0, SVG Export Plug-In . SVG Version: 6.00 Build 0)  -->
<!DOCTYPE svg PUBLIC "-//W3C//DTD SVG 1.1//EN" "http://www.w3.org/Graphics/SVG/1.1/DTD/svg11.dtd">
<svg version="1.1" id="Layer_1" xmlns="http://www.w3.org/2000/svg" xmlns:xlink="http://www.w3.org/1999/xlink" x="0px" y="0px"
	 width="50px" height="50px" viewBox="0 0 50 50" enable-background="new 0 0 50 50" xml:space="preserve">
<g id="Close">
	<path fill="#E43225" d="M24.852,49.593c-13.5,0-24.482-10.982-24.482-24.482c0-13.499,10.982-24.481,24.482-24.481
		c13.499,0,24.481,10.983,24.481,24.481C49.333,38.61,38.351,49.593,24.852,49.593z M24.852,4.514
		c-11.357,0-20.597,9.239-20.597,20.597c0,11.357,9.24,20.597,20.597,20.597c11.357,0,20.596-9.24,20.596-20.597
		C45.448,13.753,36.209,4.514,24.852,4.514z"/>
	
		<rect x="10.465" y="23.169" transform="matrix(0.7071 0.7071 -0.7071 0.7071 25.0351 -10.2178)" fill="#E43225" width="28.773" height="3.884"/>
	
		<rect x="22.91" y="10.724" transform="matrix(0.7071 0.7071 -0.7071 0.7071 25.0351 -10.2178)" fill="#E43225" width="3.884" height="28.774"/>
</g>
</svg>
